<svg xmlns="http://www.w3.org/2000/svg" viewBox="0 0 974.75 200" fill="#06ac38"><path d="M950.49,41.92l-22,62.4c-4,11.25-6,17.64-9.72,28.44h-.43C915.43,123.5,912.79,116,909,105L887.66,41.92H862.07l44.31,115.76c-1,2.54-2,5.15-3.1,7.8a24,24,0,0,1-22.22,14.92h-11V200h11.34A44.78,44.78,0,0,0,923,171.82c14.13-35.32,38.13-95.42,51.75-129.9Z"/><path d="M336.2,135.39c0,41.9-19.18,64.61-58,64.61-28.89,0-46.31-15.21-52.48-38.15H249.1c4,10.59,12.35,20.07,29.55,20.07,26.46,0,35.94-16.54,35.94-47.85-.22,0-.22-.22-.44-.22-5.73,9.92-18.52,18.74-38.81,18.74C242.7,152.59,222,129,222,95.92c0-34.4,22.49-57.55,53.58-57.55,20.07,0,32.19,8.6,38.81,18.08-.22-2.43-.22-4.85-.22-7.28V41.9H336.2Zm-90-39.69c0,22.49,12.57,38.59,34.18,38.59,19.41,0,34.4-13.67,34.4-39.25,0-22.71-13.23-37.93-34.4-37.93S246.23,72.33,246.23,95.7Z"/><path d="M372.67,105.62c.88,20.29,13.89,36.39,36.38,36.39,15.88,0,23.6-7.5,29.55-17.42h22.27c-6.61,20.94-24.92,35.94-52.7,35.94-35.72,0-58-24-58-60.2s23.15-61.74,58-61.74c37.71,0,55.13,28.66,55.13,59.76v7.27ZM440.14,88c-2-18.3-13.45-31.31-32.41-31.31-18.08,0-32,11.91-34.18,31.31Z"/><path d="M499,41.9V56.67C502.74,45.87,514,39,527,39a33.57,33.57,0,0,1,5.74.44V59.76A42.08,42.08,0,0,0,525,59.1c-20.95,0-24.92,15.43-24.92,38.58v60H477.82v-95c0-7.27,0-13.67-.22-20.72Z"/><path d="M761.65,141.12c-5.95,9.93-17.2,19.41-36.82,19.41-26.9,0-40.14-16.54-40.14-46.53V41.9H707v63.72c0,22.72,7.49,36.39,25.57,36.39,23.82,0,28-21.61,28-47V41.9h22.27v98.34c0,6,0,11.69.22,17.42H761.65Z"/><path d="M833,41.9h21.61V59.1H833v69.46c0,11,5.51,14.33,14.11,14.33a43.18,43.18,0,0,0,5.52-.44V159a63.52,63.52,0,0,1-8.6.88c-20.51,0-33.52-6.84-33.52-30V59.1H793.06V41.9h17.42V10.58H833Z"/><rect y="115.65" width="23.13" height="42.02"/><path d="M87,7.71C74.63,1.1,66,0,45.71,0H0V95.6H45.49c18.07,0,31.56-1.1,43.46-9,13-8.59,19.7-22.91,19.7-39.43C108.65,29.3,100.4,15,87,7.71ZM50.78,75.56H23.13V20.49l26.11-.22C73,20,84.92,28.42,84.92,47.36,84.92,67.85,70.16,75.56,50.78,75.56Z"/><path d="M546.33,0h38.6c57.75.38,85.57,28.59,85.78,79.16.18,43.07-22.14,78-82,78.5H546.33ZM569.7,138h13.47c41.93,0,63.84-16,63.76-58.88-.07-37.69-21.83-59.31-61.56-59.31-7.72,0-15.67.22-15.67.22Z"/><path d="M189.69,157.66c-.66-4.63-.66-7.49-1.1-15.87-8.82,12.57-20.51,18.08-39,18.08-24.26,0-41.9-11.91-41.9-33.52,0-24.92,23.82-33.08,54.69-37.27,7.72-1.1,16.32-2,23.81-2.64,0-22.94-12.74-29.84-26-29.84s-23,9.35-23,21.46H115.6c0-23.51,18.51-39.25,45.05-39.25s47.12,11,47.12,53.36v22.49c0,18.75.89,32.42,2.87,43Zm-58-31.53c0,10.8,8.82,17.64,22.93,17.64,20.73,0,31.76-12.57,31.76-35.06a44.62,44.62,0,0,1,.22-6.17C148.9,106.28,131.7,110,131.7,126.13Z"/></svg>
