<?xml version="1.0" encoding="UTF-8" standalone="no"?>
<svg
   xmlns:dc="http://purl.org/dc/elements/1.1/"
   xmlns:cc="http://creativecommons.org/ns#"
   xmlns:rdf="http://www.w3.org/1999/02/22-rdf-syntax-ns#"
   xmlns:svg="http://www.w3.org/2000/svg"
   xmlns="http://www.w3.org/2000/svg"
   viewBox="0 0 1012.0933 194.61333"
   height="194.61333"
   width="1012.0933"
   xml:space="preserve"
   id="svg2"
   version="1.1"><metadata
     id="metadata8"><rdf:RDF><cc:Work
         rdf:about=""><dc:format>image/svg+xml</dc:format><dc:type
           rdf:resource="http://purl.org/dc/dcmitype/StillImage" /></cc:Work></rdf:RDF></metadata><defs
     id="defs6" /><g
     transform="matrix(1.3333333,0,0,-1.3333333,0,194.61333)"
     id="g10"><g
       transform="scale(0.1)"
       id="g12"><path
         id="path14"
         style="fill:#25c151;fill-opacity:1;fill-rule:nonzero;stroke:none"
         d="m 1476.9,564.859 c 0,-22.851 -6.94,-41.941 -20.83,-57.269 -13.88,-15.332 -33.55,-22.996 -58.86,-22.996 h -261.34 c -21.99,0 -41.08,6.797 -56.99,20.394 -16.05,13.735 -24,32.684 -24,57.125 0,22.852 6.79,42.086 20.68,57.707 13.88,15.477 33.55,23.285 58.86,23.285 h 342.48 z m 151.28,453.121 c -17.21,32.69 -38.62,59.3 -64.21,79.54 -25.61,20.4 -53.37,35.15 -83.17,44.12 -29.93,9.11 -57.7,13.59 -83.59,13.59 H 951.176 V 978.207 h 446.034 c 23,0 41.94,-7.23 56.98,-21.551 15.19,-14.316 22.71,-33.695 22.71,-57.992 v -77.812 h -342.48 c -46.86,0 -86.63,-8.536 -119.46,-25.743 -32.687,-17.211 -59.155,-38.617 -79.546,-64.214 -20.25,-25.598 -35,-53.368 -44.109,-83.594 -9.114,-30.086 -13.598,-58 -13.598,-83.887 0,-46.859 8.676,-86.629 25.742,-119.312 17.211,-32.692 38.617,-59.301 64.219,-79.551 25.598,-20.391 53.362,-35 83.162,-44.11 29.93,-9.113 57.7,-13.589 83.59,-13.589 h 262.79 c 46.86,0 86.63,8.527 119.46,25.738 32.69,17.211 59.15,38.609 79.55,64.211 20.24,25.597 35,53.23 44.11,83.164 9.11,29.797 13.59,57.707 13.59,83.449 v 335.25 c 0,46.859 -8.53,86.629 -25.74,119.316" /><path
         id="path16"
         style="fill:#25c151;fill-opacity:1;fill-rule:nonzero;stroke:none"
         d="m 2806.35,895.758 c 0,23.129 6.99,42.476 20.96,58.187 13.81,15.571 33.6,23.426 59.06,23.426 h 264.48 c 22.11,0 40.88,-6.984 56.6,-20.949 15.56,-13.965 23.42,-33.168 23.42,-57.754 0,-22.988 -6.99,-42.48 -20.95,-58.047 -13.97,-15.57 -33.61,-23.426 -59.07,-23.426 h -344.5 z m 344.5,-256.629 c 46.99,0 87.14,8.586 120.02,25.898 32.88,17.309 59.65,38.84 80.02,64.59 20.51,25.606 35.2,53.535 44.37,83.653 9.16,29.968 13.67,58.046 13.67,83.941 0,47.137 -8.58,87.144 -25.89,120.169 -17.32,32.88 -38.85,59.64 -64.6,80.01 -25.75,20.52 -53.53,35.21 -83.65,44.38 -29.96,9.16 -58.04,13.67 -83.94,13.67 h -264.48 c -47.14,0 -87.14,-8.58 -120.02,-25.9 -33.02,-17.31 -59.65,-38.84 -80.16,-64.59 -20.37,-25.75 -35.21,-53.68 -44.37,-83.653 -9.02,-30.113 -13.68,-58.043 -13.68,-84.086 V 560.137 c 0,-47.137 8.73,-87.145 26.04,-120.028 17.32,-33.019 38.85,-59.64 64.45,-80.16 25.75,-20.359 53.68,-35.199 83.8,-44.219 29.97,-9.171 58.04,-13.82 83.94,-13.82 h 495.94 v 178.938 h -494.48 c -23.14,0 -42.48,6.984 -58.05,20.949 -15.71,13.965 -23.43,33.312 -23.43,58.34 v 78.992 h 344.5" /><path
         id="path18"
         style="fill:#25c151;fill-opacity:1;fill-rule:nonzero;stroke:none"
         d="m 4335.49,551.699 c -0.24,-9.344 2.02,-35.433 15.53,-49.636 13.09,-13.754 38.81,-16.641 58.08,-16.641 h 283.86 c 70.7,0.965 70.7,54.078 70.7,71.551 v 416.738 l -360.79,0.137 c -0.13,0 -0.27,0 -0.41,0 -9.94,0 -36.16,-2.899 -50.49,-16.782 -10.76,-10.425 -16.22,-29.242 -16.22,-55.925 z m 357.19,-246.277 c -0.36,0 -0.69,0 -1,0 H 4409.1 c -100.69,0 -159.46,40.937 -191.03,75.289 -62.98,68.508 -63.45,157.019 -62.32,180.637 v 339.793 c 0,98.164 40.05,156.269 73.63,187.739 68.85,64.48 158.98,65.57 180.86,64.83 h 353.42 v 305.93 h 180 V 556.973 c 0,-92.403 -37.95,-149.012 -69.79,-180.243 -69.09,-67.761 -162.47,-71.308 -181.19,-71.308" /><path
         id="path20"
         style="fill:#25c151;fill-opacity:1;fill-rule:nonzero;stroke:none"
         d="m 541.832,486.727 c 9.453,0.117 36.547,2.714 51.18,16.878 10.836,10.493 16.328,29.399 16.328,56.208 l 0.25,350.242 c 0.25,9.39 -2.027,35.621 -15.625,49.918 -13.164,13.843 -39.004,16.746 -58.363,16.746 H 251.059 C 180,975.754 180,922.355 180,904.785 V 486.863 Z M 180,0 H 0 v 904.785 c 0,92.551 38.0039,149.245 69.8828,180.515 70.5902,69.24 166.2222,71.59 182.5122,71.42 h 283.207 c 100.843,0 159.703,-41 191.316,-75.4 C 790,1012.7 790.465,924.039 789.34,900.406 V 559.813 c 0,-98.317 -40.102,-156.512 -73.738,-188.024 -68.93,-64.559 -159.137,-65.668 -181.145,-64.93 l -354.457,0 V 0" /><path
         id="path22"
         style="fill:#25c151;fill-opacity:1;fill-rule:nonzero;stroke:none"
         d="m 3661.57,305.211 h -180 v 598.633 c 0,92.187 37.87,148.836 69.64,180.116 70.93,69.84 167.63,72.09 182.93,72.08 h 349.95 V 976.043 h -350.7 c -71.82,-1.152 -71.82,-54.617 -71.82,-72.199 V 305.211" /><path
         id="path24"
         style="fill:#25c151;fill-opacity:1;fill-rule:nonzero;stroke:none"
         d="m 5289.56,304.582 c -13.73,0 -111.45,2.668 -182.67,73.34 -31.52,31.289 -69.1,87.762 -69.1,179.16 v 598.748 h 180 V 557.082 c 0,-39.359 13.55,-52.309 28.21,-60.441 16.99,-9.434 37.96,-11.899 44.73,-12.063 l 352.06,0.004 v 671.248 h 180 V 304.582 h -532.5 c -0.21,0 -0.45,0 -0.73,0" /><path
         id="path26"
         style="fill:#25c151;fill-opacity:1;fill-rule:nonzero;stroke:none"
         d="m 1927.31,894.996 0.28,-3.301 -0.18,-1.277 V 575 c 0,-31.527 6.9,-53.969 20.5,-66.699 21.15,-19.805 59.5,-19.731 59.8,-19.746 l 5.95,0.195 h 341.57 l -0.01,402.395 c 0,47.765 -19.26,63.843 -38.11,73.265 -22.68,11.34 -47.39,12.465 -47.62,12.465 h -255.62 c -30.6,0 -52.62,-6.684 -65.46,-19.871 -17.81,-18.313 -21.25,-50.27 -21.1,-62.008 z M 2270.27,7.96875 H 1842.83 V 187.969 h 427.44 c 44.98,0 60.82,17.57 70.38,34.75 10.96,19.703 14.2,43.492 14.58,51.66 v 34.371 h -339.54 c -22.65,-0.852 -118.03,0.039 -190.78,68.141 -35.36,33.089 -77.5,94.316 -77.5,198.109 v 313.703 c -0.67,21.699 0.54,118.247 69.66,191.387 33.1,35.04 94.11,76.79 196.8,76.79 h 255.62 c 106.82,0 265.73,-70.77 265.73,-265.735 V 272.922 C 2534.21,165.898 2462.81,7.96875 2270.27,7.96875" /><path
         id="path28"
         style="fill:#25c151;fill-opacity:1;fill-rule:nonzero;stroke:none"
         d="M 7326.29,5.62891 H 6899.42 V 185.629 h 426.87 c 44.85,0 60.55,17.383 70,34.402 10.86,19.539 14.03,43.168 14.38,51.258 v 33.09 h -340.63 c -103.72,0 -165.02,42.121 -198.18,77.453 -68.53,73.02 -69.49,168.926 -68.69,191.363 V 1155 h 180 l -0.14,-589.07 c -0.19,-11.762 3.06,-43.317 20.6,-61.461 12.89,-13.328 35.23,-20.094 66.41,-20.094 h 340.63 v 671.875 h 180 V 270 C 7589.91,163.352 7518.87,5.62891 7326.29,5.62891" /><path
         id="path30"
         style="fill:#25c151;fill-opacity:1;fill-rule:nonzero;stroke:none"
         d="m 6401.38,304.172 h -180 v 671.246 h -306.25 v 180.002 h 306.25 v 231.25 h 180 v -231.25 h 307.5 V 975.418 h -307.5 V 304.172" /></g></g></svg>
